<?xml version="1.0" standalone="no"?><!DOCTYPE svg PUBLIC "-//W3C//DTD SVG 1.1//EN" "http://www.w3.org/Graphics/SVG/1.1/DTD/svg11.dtd"><svg t="1553308659447" class="icon" style="" viewBox="0 0 1024 1024" version="1.1" xmlns="http://www.w3.org/2000/svg" p-id="2692" xmlns:xlink="http://www.w3.org/1999/xlink" width="200" height="200"><defs><style type="text/css"></style></defs><path d="M0 0h1024v1024H0z" fill="#FFFFFF" p-id="2693"></path><path d="M157.538462 315.076923h157.538461V157.538462H157.538462v157.538461zM0 1024h472.615385V551.384615H0v472.615385z m78.769231-393.846154h315.076923v315.076923H78.769231v-315.076923z m78.769231 236.307692h157.538461v-157.538461H157.538462v157.538461zM551.384615 0v472.615385h472.615385V0H551.384615z m393.846154 393.846154h-315.076923V78.769231h315.076923v315.076923z m0 315.076923h-157.538461v-157.538462h-236.307693v472.615385h78.769231v-315.076923h78.769231v78.769231h315.076923v-236.307693h-78.769231v157.538462zM0 472.615385h472.615385V0H0v472.615385zM78.769231 78.769231h315.076923v315.076923H78.769231V78.769231z m787.692307 78.769231h-157.538461v157.538461h157.538461V157.538462z m78.769231 866.461538h78.769231v-157.538462h-78.769231v157.538462z m-157.538461 0h78.76923v-157.538462h-78.76923v157.538462z" fill="#B9B9B9" p-id="2694"></path></svg>