<?xml version="1.0" standalone="no"?><!DOCTYPE svg PUBLIC "-//W3C//DTD SVG 1.1//EN" "http://www.w3.org/Graphics/SVG/1.1/DTD/svg11.dtd"><svg t="1553256848197" class="icon" style="" viewBox="0 0 1118 1024" version="1.1" xmlns="http://www.w3.org/2000/svg" p-id="2718" xmlns:xlink="http://www.w3.org/1999/xlink" width="218.359375" height="200"><defs><style type="text/css"></style></defs><path d="M442.413095 188.628463h-123.312315c-7.24735-16.542589-11.422076-34.706753-11.422076-53.894072l0.001579-0.085263c-45.994619 19.179424-87.015566 47.883035-120.617058 83.647679l57.2888 57.288801c49.275663-53.428284 119.82285-86.957145 198.06107-86.957145z" fill="#A8A8B4" p-id="2719"></path><path d="M495.092959 134.734391a53.674599 53.674599 0 0 0-5.545249-23.782045 353.509618 353.509618 0 0 0-47.134615-3.165781c-16.883641 0-33.481493 1.220523-49.72882 3.528938a53.884598 53.884598 0 0 0 2.046311 50.740923 53.889335 53.889335 0 0 0 47.682509 26.572037c29.290977-0.659998 52.68618-24.598358 52.679864-53.894072z" fill="#A8A8B4" p-id="2720"></path><path d="M873.570408 808.418975v-53.894072l-80.840319-107.788144V458.101981c0-145.734889-88.986087-270.662462-215.582604-323.452853l0.001579 0.085263a133.70492 133.70492 0 0 1-11.422076 53.894072h-123.312314c148.58646 0 269.475097 120.887058 269.475097 269.473518v188.634778a80.95716 80.95716 0 0 0 16.165221 48.50356l64.675097 86.230831h-42.489364l79.820321 79.818742c24.7152-4.874198 43.509362-26.778879 43.509362-52.870917zM92.097679 781.472729L156.772776 695.240319a80.900318 80.900318 0 0 0 16.165222-48.50356V458.101981c0-23.080993 2.922624-45.492515 8.406294-66.888776l-63.969309-63.96773c-16.289958 40.430422-25.278882 84.591888-25.278883 130.856506v188.634778L11.257361 754.524903V808.418975c0 29.641503 24.25099 53.892493 53.894072 53.892493H652.440976l-80.83874-80.838739H92.097679z" fill="#A8A8B4" p-id="2721"></path><path d="M442.413095 943.153366c-44.64778 0-80.840319-36.192539-80.840319-80.841898h-80.840319c0 89.143981 72.538235 161.688532 161.680638 161.688532s161.680637-72.54455 161.680637-161.688532h-80.840319c0.001579 44.649359-36.19096 80.841898-80.840318 80.841898zM394.717954 107.46604a53.89723 53.89723 0 0 1 47.669878-26.595722c20.75521 0.461051 38.543585 12.617336 47.158299 30.082028a347.853843 347.853843 0 0 1 87.598196 23.696782C577.098538 60.39774 516.68343 0 442.413095 0c-74.262441 0-134.685443 60.39774-134.732812 134.649128A347.929632 347.929632 0 0 1 392.684275 111.315503c0.629998-1.301049 1.294734-2.589467 2.033679-3.849463z" fill="#A8A8B4" p-id="2722"></path><path d="M495.092959 134.734391c0.006316 29.295714-23.388887 53.234074-52.678285 53.894072h123.312314a133.679656 133.679656 0 0 0 11.422076-53.894072l-0.001579-0.085263A347.87279 347.87279 0 0 0 489.549289 110.952346a53.693546 53.693546 0 0 1 5.54367 23.782045zM319.102359 188.628463h123.312315a53.889335 53.889335 0 0 1-47.682509-26.572037A53.884598 53.884598 0 0 1 392.685854 111.315503a347.841211 347.841211 0 0 0-85.003992 23.333625l-0.001579 0.085263c-0.001579 19.187319 4.174726 37.351483 11.422076 53.894072zM829.971046 894.697174c15.413645 15.416802 15.413645 40.408317 0 55.823541-15.416802 15.416802-40.411475 15.416802-55.823541 0L60.713023 237.089391c-15.416802-15.415224-15.416802-40.408317 0-55.823541 15.416802-15.415224 40.408317-15.415224 55.823541 0L829.971046 894.697174z" fill="#A8A8B4" p-id="2723"></path></svg>