<?xml version="1.0" standalone="no"?><!DOCTYPE svg PUBLIC "-//W3C//DTD SVG 1.1//EN" "http://www.w3.org/Graphics/SVG/1.1/DTD/svg11.dtd"><svg t="1553302867046" class="icon" style="" viewBox="0 0 1024 1024" version="1.1" xmlns="http://www.w3.org/2000/svg" p-id="15644" xmlns:xlink="http://www.w3.org/1999/xlink" width="200" height="200"><defs><style type="text/css"></style></defs><path d="M0 0m512 0l0 0q512 0 512 512l0 0q0 512-512 512l0 0q-512 0-512-512l0 0q0-512 512-512Z" fill="#FFA500" p-id="15645"></path><path d="M324.48 455.8208c-0.8192 33.9712 5.6576 84.9152-34.7904 84.928-27.4944 0-28.3008-33.1648-28.3008-33.1648L243.584 344.192s-12.9536-85.7344 109.9904-88.1664c122.944-2.432 135.8848 104.3456 135.8848 104.3456h103.5392s24.256 4.8512 23.4496 33.9712c-0.8064 29.1072-20.224 28.3008-20.224 28.3008H354.4064s-29.12-0.8064-29.9392 33.1648z m185.5744 207.7952h-103.5392s-24.256-4.8512-23.4496-33.9712c0.8064-29.12 20.224-28.3136 20.224-28.3136H645.12s29.12 0.8192 29.9264-33.152c0.8192-33.9712-5.6704-84.9152 34.7776-84.928 27.5072 0 28.3136 33.152 28.3136 33.152l17.792 163.392s12.9408 85.7344-109.9904 88.1664c-122.9568 2.432-135.8848-104.3456-135.8848-104.3456z" fill="#FFFFFF" p-id="15646"></path></svg>