<?xml version="1.0" standalone="no"?><!DOCTYPE svg PUBLIC "-//W3C//DTD SVG 1.1//EN" "http://www.w3.org/Graphics/SVG/1.1/DTD/svg11.dtd"><svg t="1553303004024" class="icon" style="" viewBox="0 0 1024 1024" version="1.1" xmlns="http://www.w3.org/2000/svg" p-id="16830" xmlns:xlink="http://www.w3.org/1999/xlink" width="200" height="200"><defs><style type="text/css"></style></defs><path d="M0 0m75.851852 0l872.296296 0q75.851852 0 75.851852 75.851852l0 872.296296q0 75.851852-75.851852 75.851852l-872.296296 0q-75.851852 0-75.851852-75.851852l0-872.296296q0-75.851852 75.851852-75.851852Z" fill="#FFFFFF" p-id="16831"></path><path d="M855.438222 811.861333l-124.984889-124.795259a315.145481 315.145481 0 0 0 72.874667-201.348741 316.112593 316.112593 0 0 0-23.419259-118.840889l-0.606815-1.630814a315.752296 315.752296 0 0 0-66.673778-100.996741l-1.422222-1.21363a314.785185 314.785185 0 0 0-445.62963 0 314.292148 314.292148 0 0 0-68.987259 341.541926l0.417185 1.630815a320.474074 320.474074 0 0 0 68.551111 102.21037 311.770074 311.770074 0 0 0 102.210371 68.133926h0.417185a310.575407 310.575407 0 0 0 240.545185 0 291.821037 291.821037 0 0 0 80.858074-48.848592l125.003852 125.155555a28.956444 28.956444 0 0 0 40.846222-41.035852z m-185.116444-144.289185v0.284445l-0.417185 0.417185a264.438519 264.438519 0 0 1-83.342223 55.428741 255.469037 255.469037 0 0 1-98.322963 19.304296 258.787556 258.787556 0 0 1-98.512592-19.304296h0.208592a258.408296 258.408296 0 0 1-83.531851-55.845926l-0.208593-0.18963h0.208593a253.553778 253.553778 0 0 1-55.618371-83.342222l-0.853333-1.801482a256 256 0 0 1-18.962963-96.90074 253.212444 253.212444 0 0 1 19.721481-98.512593 257.72563 257.72563 0 0 1 335.872-139.282963 269.842963 269.842963 0 0 1 83.759408 55.826963l1.213629 1.630815a248.414815 248.414815 0 0 1 54.385778 82.109629l1.024 1.630815a258.294519 258.294519 0 0 1 18.469926 96.711111 256.872296 256.872296 0 0 1-75.112296 181.873778zM409.220741 297.927111a206.241185 206.241185 0 0 0-34.49363 18.659556 178.669037 178.669037 0 0 0-30.340741 25.050074 183.504593 183.504593 0 0 0-25.050074 30.34074 206.696296 206.696296 0 0 0-18.962963 34.285038 17.806222 17.806222 0 0 0 9.045334 23.002074 17.21837 17.21837 0 0 0 22.755555-9.481482 155.761778 155.761778 0 0 1 15.777185-28.444444 186.823111 186.823111 0 0 1 20.536889-25.239704 154.017185 154.017185 0 0 1 25.562074-20.612741 137.083259 137.083259 0 0 1 28.330667-15.587555 17.59763 17.59763 0 0 0 9.481482-22.755556 17.256296 17.256296 0 0 0-22.641778-9.216z m265.481481 170.761482a17.066667 17.066667 0 0 0-17.237333 17.066666A172.923259 172.923259 0 0 1 644.740741 550.4l-0.417185 1.251556a171.766519 171.766519 0 0 1-91.344593 90.529185 163.271111 163.271111 0 0 1-64.853333 12.93274 17.256296 17.256296 0 0 0 0 34.49363 206.468741 206.468741 0 0 0 78.203259-15.17037 210.659556 210.659556 0 0 0 66.218667-44.506074 207.208296 207.208296 0 0 0 43.899259-65.668741l0.208592-0.625778a204.8 204.8 0 0 0 15.796149-77.994667 17.370074 17.370074 0 0 0-17.635556-16.896z" fill="#1777EB" p-id="16832"></path></svg>