<?xml version="1.0" standalone="no"?><!DOCTYPE svg PUBLIC "-//W3C//DTD SVG 1.1//EN" "http://www.w3.org/Graphics/SVG/1.1/DTD/svg11.dtd"><svg t="1553309324676" class="icon" style="" viewBox="0 0 1024 1024" version="1.1" xmlns="http://www.w3.org/2000/svg" p-id="9066" xmlns:xlink="http://www.w3.org/1999/xlink" width="200" height="200"><defs><style type="text/css"></style></defs><path d="M473.97213968750003 558.16537625a39.3305025 39.3305025 0 0 0-18.226329375-26.620035c-85.1361478125-51.3215090625-170.9917565625-101.2040971875-256.8473653125-151.5663253125L94.09704687499999 318.58506125a50.122408125 50.122408125 0 0 0-2.3982018750000003 8.3937046875v427.35948a34.05445875 34.05445875 0 0 0 16.067949375 23.9820140625q173.1501375 103.122658125 347.499375 204.8063953125a176.747439375 176.747439375 0 0 0 17.506870312500002 7.91406375 65.4708965625 65.4708965625 0 0 0 1.6787409375-9.1131646875c0.71946-141.97351968750002 0.71946-282.987759375-0.4796409375-423.762178125z" fill="#FFB400" p-id="9067"></path><path d="M930.8294975000001 347.12365718750004c0-7.43442375 0-15.108668437499999-1.6787409375-23.982013125a119.9100675 119.9100675 0 0 0-11.2715465625 4.7964028125c-119.9100675 69.78765937499999-237.90157406249998 139.09567781249999-356.132900625 209.8426171875a39.0906815625 39.0906815625 0 0 0-13.6697475 29.258056875v400.9792659375c0 6.95478375 0 13.9095675 1.1991009375000001 23.982013125 8.6335246875-4.5565828125 15.108668437499999-7.43442375 21.10417125-11.0317265625 113.91456375000001-66.9098175 227.5893084375-134.05945499999999 341.7436921875-200.2498125a34.2942796875 34.2942796875 0 0 0 19.66525125-34.294278750000004c-0.9592809375000001-133.579815-0.9592809375000001-266.44017-0.9592799999999999-399.300525z" fill="#547EA4" p-id="9068"></path><path d="M882.8654703125001 247.838121875c-119.9100675-70.267299375-239.820135-140.05495875-358.2912815625-210.80189906249998a25.900575 25.900575 0 0 0-30.9367978125 1.4389209374999998L149.9751378125 240.64351718750004c-6.23532375 3.597301875-11.9910065625 7.674244687499999-18.9457903125 12.2308275a93.2900325 93.2900325 0 0 0 8.8733446875 6.95478375c119.9100675 70.267299375 239.820135 140.77441875 359.7302025 210.08243812499998a35.973020625000004 35.973020625000004 0 0 0 29.977516875 0c95.928054375-55.878091875 191.8561078125-112.71546375 289.2230821875-169.313015625l74.5840621875-43.887084375a95.928054375 95.928054375 0 0 0-10.552085625-8.8733446875z" fill="#FF6666" p-id="9069"></path></svg>