<?xml version="1.0" standalone="no"?><!DOCTYPE svg PUBLIC "-//W3C//DTD SVG 1.1//EN" "http://www.w3.org/Graphics/SVG/1.1/DTD/svg11.dtd"><svg t="1553309405441" class="icon" style="" viewBox="0 0 1330 1024" version="1.1" xmlns="http://www.w3.org/2000/svg" p-id="10866" xmlns:xlink="http://www.w3.org/1999/xlink" width="259.765625" height="200"><defs><style type="text/css"></style></defs><path d="M1124.045977 0H205.977011A205.977011 205.977011 0 0 0 0 205.977011v612.045978a205.977011 205.977011 0 0 0 205.977011 205.977011h918.068966a205.977011 205.977011 0 0 0 205.977012-205.977011V205.977011a205.977011 205.977011 0 0 0-205.977012-205.977011z m0 965.149425H205.977011a147.126437 147.126437 0 0 1-147.126436-147.126436V205.977011A147.126437 147.126437 0 0 1 205.977011 58.850575h918.068966a147.126437 147.126437 0 0 1 147.126437 147.126436v456.091955H1099.328736L881.287356 409.6l-117.701149 136.68046L572.321839 323.678161 270.565517 673.691954a29.425287 29.425287 0 0 0 22.216092 48.698851 29.425287 29.425287 0 0 0 22.216092-10.151725L572.321839 414.308046l191.264368 222.308046 117.701149-136.974713 191.264368 220.689655h198.62069v97.103449a147.126437 147.126437 0 0 1-147.126437 147.714942z" fill="#2B4EA2" p-id="10867"></path><path d="M414.896552 286.896552a122.114943 122.114943 0 1 0-122.114943 122.114942 122.262069 122.262069 0 0 0 122.114943-122.114942z m-185.379311 0a63.264368 63.264368 0 1 1 63.264368 63.264368 63.411494 63.411494 0 0 1-63.264368-63.264368z" fill="#2B4EA2" p-id="10868"></path></svg>