<?xml version="1.0" standalone="no"?><!DOCTYPE svg PUBLIC "-//W3C//DTD SVG 1.1//EN" "http://www.w3.org/Graphics/SVG/1.1/DTD/svg11.dtd"><svg t="1553415158915" class="icon" style="" viewBox="0 0 1024 1024" version="1.1" xmlns="http://www.w3.org/2000/svg" p-id="2701" xmlns:xlink="http://www.w3.org/1999/xlink" width="200" height="200"><defs><style type="text/css"></style></defs><path d="M868.770909 241.338182H763.345455A69.818182 69.818182 0 0 1 698.181818 198.981818a139.636364 139.636364 0 0 0-129.163636-84.712727h-114.036364A139.636364 139.636364 0 0 0 325.818182 198.981818a69.818182 69.818182 0 0 1-64.930909 42.356364H155.229091a123.112727 123.112727 0 0 0-123.810909 122.414545v456.145455a123.112727 123.112727 0 0 0 123.810909 122.414545h713.541818a123.112727 123.112727 0 0 0 123.810909-122.414545v-456.145455a123.112727 123.112727 0 0 0-123.810909-122.414545z m53.992727 578.56a53.294545 53.294545 0 0 1-53.992727 52.596363H155.229091a53.294545 53.294545 0 0 1-53.992727-52.596363v-456.145455a53.294545 53.294545 0 0 1 53.992727-52.596363h105.425454a139.636364 139.636364 0 0 0 129.163637-84.712728 69.818182 69.818182 0 0 1 64.930909-42.356363h114.269091a69.818182 69.818182 0 0 1 64.930909 42.356363 139.636364 139.636364 0 0 0 129.163636 84.712728h105.425455a53.294545 53.294545 0 0 1 53.992727 52.596363z" fill="#999999" p-id="2702"></path><path d="M834.094545 354.909091h-27.22909a34.909091 34.909091 0 0 0 0 69.818182h27.22909a34.909091 34.909091 0 0 0 0-69.818182zM512 367.476364a224.349091 224.349091 0 1 0 227.374545 224.349091A226.210909 226.210909 0 0 0 512 367.476364z m0 378.88a154.530909 154.530909 0 1 1 157.556364-154.530909A156.392727 156.392727 0 0 1 512 746.356364z" fill="#999999" p-id="2703"></path></svg>