<?xml version="1.0" standalone="no"?><!DOCTYPE svg PUBLIC "-//W3C//DTD SVG 1.1//EN" "http://www.w3.org/Graphics/SVG/1.1/DTD/svg11.dtd"><svg t="1553244256474" class="icon" style="" viewBox="0 0 1024 1024" version="1.1" xmlns="http://www.w3.org/2000/svg" p-id="18251" xmlns:xlink="http://www.w3.org/1999/xlink" width="200" height="200"><defs><style type="text/css"></style></defs><path d="M194.021053 891.957895C80.842105 797.642105 13.473684 657.515789 13.473684 509.305263 13.473684 234.442105 237.136842 13.473684 512 13.473684s498.526316 220.968421 498.526316 495.831579c0 140.126316-59.284211 274.863158-164.378948 366.484211l-18.863157-18.863158c99.705263-88.926316 156.294737-215.578947 156.294736-347.621053 0-258.694737-212.884211-468.884211-471.578947-468.88421S40.421053 250.610526 40.421053 509.305263c0 140.126316 61.978947 272.168421 172.463158 361.094737l-18.863158 21.557895z" fill="#cdcdcd" p-id="18252"></path><path d="M293.726316 980.884211c-10.778947 0-18.863158 0-29.642105-2.694737-26.947368-8.084211-51.2-26.947368-67.368422-51.2l-72.757894-123.957895c-29.642105-51.2-13.473684-118.568421 40.421052-148.210526 51.2-29.642105 118.568421-13.473684 148.210527 40.421052l72.757894 123.957895c13.473684 24.252632 18.863158 53.894737 10.778948 83.536842s-26.947368 51.2-51.2 67.368421c-13.473684 5.389474-32.336842 10.778947-51.2 10.778948zM220.968421 665.6c-13.473684 0-26.947368 2.694737-40.421053 10.778947-40.421053 21.557895-53.894737 72.757895-29.642105 113.178948l72.757895 123.957894c10.778947 18.863158 29.642105 32.336842 51.2 37.726316 21.557895 5.389474 43.115789 2.694737 61.978947-8.08421 40.421053-21.557895 53.894737-72.757895 29.642106-113.178948l-72.757895-123.957894c-16.168421-24.252632-43.115789-40.421053-72.757895-40.421053zM741.052632 980.884211c-18.863158 0-37.726316-5.389474-53.894737-13.473685-51.2-29.642105-70.063158-97.010526-40.421053-148.210526l72.757895-123.957895c29.642105-51.2 97.010526-70.063158 148.210526-40.421052s70.063158 97.010526 40.421053 148.210526L835.368421 926.989474c-13.473684 24.252632-37.726316 43.115789-67.368421 51.2-8.084211 2.694737-18.863158 2.694737-26.947368 2.694737z m70.063157-315.284211c-29.642105 0-56.589474 13.473684-70.063157 40.421053l-72.757895 123.957894c-21.557895 40.421053-8.084211 88.926316 29.642105 113.178948 18.863158 10.778947 40.421053 13.473684 61.978947 8.08421 21.557895-5.389474 37.726316-18.863158 51.2-37.726316l72.757895-123.957894c21.557895-40.421053 8.084211-88.926316-29.642105-113.178948-13.473684-8.084211-26.947368-10.778947-43.11579-10.778947z" fill="#cdcdcd" p-id="18253"></path></svg>