<?xml version="1.0" standalone="no"?><!DOCTYPE svg PUBLIC "-//W3C//DTD SVG 1.1//EN" "http://www.w3.org/Graphics/SVG/1.1/DTD/svg11.dtd"><svg t="1553047618046" class="icon" style="" viewBox="0 0 1025 1024" version="1.1" xmlns="http://www.w3.org/2000/svg" p-id="834" xmlns:xlink="http://www.w3.org/1999/xlink" width="200.1953125" height="200"><defs><style type="text/css"></style></defs><path d="M1015.590145 494.980055L881.03246 360.42237V171.40086c0-16.018772-11.21314-27.231912-27.231912-27.231912H666.380915L531.82323 9.611263c-11.21314-11.21314-32.037544-11.21314-43.250684 0l-128.150176 134.557685H171.40086c-16.018772 0-27.231912 11.21314-27.231912 27.231912v182.614001L9.611263 488.572546c-11.21314 11.21314-11.21314 32.037544 0 43.250684L144.168948 666.380915v187.419633c0 16.018772 11.21314 27.231912 27.231912 27.231912h187.419633l134.557685 134.557685c11.21314 11.21314 27.231912 11.21314 36.843175 0l134.557685-134.557685h187.419632c16.018772 0 27.231912-11.21314 27.231913-27.231912V666.380915l134.557685-134.557685c11.21314-11.21314 11.21314-27.231912 1.601877-36.843175z m-177.808369 139.363316c0 4.805632-4.805632 16.018772-4.805632 20.824404v171.40086H659.973406c-11.21314 0-16.018772 0-20.824403 4.805632l-123.344545 123.344544-123.344544-121.742667c-4.805632 0-16.018772-4.805632-20.824404-4.805632H198.632773V655.167775c0-11.21314 0-16.018772-4.805632-20.824404l-123.344544-123.344544 123.344544-118.538913c0-4.805632 4.805632-16.018772 4.805632-20.824404V198.632773h171.40086c4.805632 0 11.21314-4.805632 16.018772-11.213141l123.344545-118.538912 128.150176 123.344544c4.805632 0 16.018772 4.805632 20.824403 4.805632H832.976144v166.595228c0 11.21314 0 16.018772 4.805632 20.824404l123.344544 123.344544-123.344544 126.548299z" fill="#E1E5E6" p-id="835"></path><path d="M832.976144 365.228002V198.632773H659.973406c-4.805632 0-16.018772-4.805632-20.824403-4.805632l-128.150176-123.344544-123.344545 118.538913c-4.805632 4.805632-11.21314 11.21314-16.018772 11.21314H198.632773v171.40086c0 4.805632-4.805632 16.018772-4.805632 20.824404l-123.344544 118.538913 123.344544 123.344544c4.805632 4.805632 4.805632 11.21314 4.805632 20.824404v171.40086h171.40086c4.805632 0 16.018772 4.805632 20.824404 4.805632l123.344544 123.344544 123.344545-123.344544c4.805632-4.805632 11.21314-4.805632 20.824403-4.805632H832.976144V655.167775c0-4.805632 4.805632-16.018772 4.805632-20.824404l123.344544-123.344544-123.344544-123.344545c-4.805632-6.407509-4.805632-11.21314-4.805632-22.42628z" fill="#FFFFFF" p-id="836"></path><path d="M349.20923 456.535002c-4.805632-11.21314-27.231912-11.21314-36.843176 0-11.21314 11.21314-11.21314 27.231912 0 36.843176l145.770825 145.770825c11.21314 4.805632 27.231912 4.805632 36.843176-4.805632l219.457176-219.457176c11.21314-11.21314 11.21314-27.231912 0-36.843176-11.21314-11.21314-27.231912-11.21314-36.843175 0L472.553774 579.879546l-123.344544-123.344544z" fill="#50D772" p-id="837"></path></svg>