<?xml version="1.0" standalone="no"?><!DOCTYPE svg PUBLIC "-//W3C//DTD SVG 1.1//EN" "http://www.w3.org/Graphics/SVG/1.1/DTD/svg11.dtd"><svg t="1553167600577" class="icon" style="" viewBox="0 0 1027 1024" version="1.1" xmlns="http://www.w3.org/2000/svg" p-id="876" xmlns:xlink="http://www.w3.org/1999/xlink" width="200.5859375" height="200"><defs><style type="text/css"></style></defs><path d="M512 0c-283.306667 0-512 228.693333-512 512s228.693333 512 512 512 512-228.693333 512-512S795.306667 0 512 0z m0 979.626667c-259.413333 0-467.626667-208.213333-467.626667-467.626667S252.586667 44.373333 512 44.373333 979.626667 252.586667 979.626667 512 771.413333 979.626667 512 979.626667z" fill="#cdcdcd" p-id="877"></path><path d="M525.653333 259.413333c-6.826667 0-13.653333 0-17.066666 6.826667l-146.773334 126.293333h-102.4c-20.48 0-40.96 20.48-40.96 40.96v174.08c0 20.48 20.48 40.96 40.96 40.96h105.813334l146.773333 116.053334c3.413333 3.413333 10.24 6.826667 17.066667 6.826666 13.653333 0 27.306667-10.24 27.306666-27.306666V283.306667c-3.413333-13.653333-17.066667-23.893333-30.72-23.893334z m105.813334 119.466667c-10.24-6.826667-20.48-3.413333-27.306667 6.826667s-3.413333 20.48 6.826667 27.306666c30.72 20.48 47.786667 54.613333 47.786666 92.16 0 34.133333-17.066667 68.266667-47.786666 88.746667-10.24 6.826667-10.24 20.48-3.413334 27.306667 3.413333 6.826667 10.24 6.826667 17.066667 6.826666 3.413333 0 6.826667 0 13.653333-3.413333 40.96-27.306667 64.853333-75.093333 64.853334-122.88-3.413333-47.786667-27.306667-92.16-71.68-122.88z" fill="#cdcdcd" p-id="878"></path><path d="M716.8 307.2c-6.826667-6.826667-20.48-6.826667-27.306667 0s-6.826667 20.48 0 27.306667c47.786667 44.373333 75.093333 105.813333 75.093334 170.666666 0 61.44-23.893333 119.466667-71.68 163.84-6.826667 6.826667-6.826667 20.48 0 27.306667 3.413333 3.413333 10.24 6.826667 13.653333 6.826667 3.413333 0 10.24 0 13.653333-6.826667 54.613333-51.2 81.92-119.466667 81.92-194.56 3.413333-71.68-27.306667-143.36-85.333333-194.56z" fill="#cdcdcd" p-id="879"></path></svg>