<?xml version="1.0" standalone="no"?><!DOCTYPE svg PUBLIC "-//W3C//DTD SVG 1.1//EN" "http://www.w3.org/Graphics/SVG/1.1/DTD/svg11.dtd"><svg t="1553047625012" class="icon" style="" viewBox="0 0 1024 1024" version="1.1" xmlns="http://www.w3.org/2000/svg" p-id="947" xmlns:xlink="http://www.w3.org/1999/xlink" width="200" height="200"><defs><style type="text/css"></style></defs><path d="M64 277.333333h533.333333v42.666667H64zM405.333333 704h533.333334v42.666667H405.333333z" fill="" p-id="948"></path><path d="M26.24 655.36L403.2 277.333333l30.293333 30.08L56.32 685.44zM569.173333 715.733333l377.173334-377.173333 30.08 30.08L599.466667 746.666667z" fill="" p-id="949"></path><path d="M266.666667 949.333333v-533.333333h42.666666v533.333333zM693.333333 608v-533.333333h42.666667v533.333333z" fill="" p-id="950"></path><path d="M644.693333 987.093333L267.52 610.133333 298.666667 579.84l376.106666 377.173333zM705.066667 444.16L327.893333 66.986667l30.08-30.08L735.146667 413.866667z" fill="" p-id="951"></path><path d="M512 42.666667A469.333333 469.333333 0 1 1 42.666667 512 469.333333 469.333333 0 0 1 512 42.666667m0-42.666667a512 512 0 1 0 512 512A512 512 0 0 0 512 0z" fill="" p-id="952"></path></svg>