<?xml version="1.0" standalone="no"?><!DOCTYPE svg PUBLIC "-//W3C//DTD SVG 1.1//EN" "http://www.w3.org/Graphics/SVG/1.1/DTD/svg11.dtd"><svg t="1553166897773" class="icon" style="" viewBox="0 0 1024 1024" version="1.1" xmlns="http://www.w3.org/2000/svg" p-id="1333" xmlns:xlink="http://www.w3.org/1999/xlink" width="200" height="200"><defs><style type="text/css"></style></defs><path d="M512 102.4A409.6 409.6 0 1 1 102.4 512 409.6 409.6 0 0 1 512 102.4m0-76.8a486.4 486.4 0 1 0 486.4 486.4A486.4 486.4 0 0 0 512 25.6z" fill="#cdcdcd" p-id="1334"></path><path d="M358.4 358.4a51.2 51.2 0 1 0 51.2 51.2 51.2 51.2 0 0 0-51.2-51.2zM640 358.4a51.2 51.2 0 1 0 51.2 51.2 51.2 51.2 0 0 0-51.2-51.2zM512 755.2a278.016 278.016 0 0 1-172.544-59.392 38.4 38.4 0 0 1 47.104-60.416 204.8 204.8 0 0 0 250.88 0 38.4 38.4 0 1 1 47.104 60.416A278.016 278.016 0 0 1 512 755.2z" fill="#cdcdcd" p-id="1335"></path></svg>