<?xml version="1.0" standalone="no"?><!DOCTYPE svg PUBLIC "-//W3C//DTD SVG 1.1//EN" "http://www.w3.org/Graphics/SVG/1.1/DTD/svg11.dtd"><svg t="1553164068614" class="icon" style="" viewBox="0 0 1024 1024" version="1.1" xmlns="http://www.w3.org/2000/svg" p-id="779" xmlns:xlink="http://www.w3.org/1999/xlink" width="200" height="200"><defs><style type="text/css"></style></defs><path d="M512 512m-512 0a512 512 0 1 0 1024 0 512 512 0 1 0-1024 0Z" fill="#FFF458" p-id="780"></path><path d="M512 512m-454.860818 0a454.860818 454.860818 0 1 0 909.721636 0 454.860818 454.860818 0 1 0-909.721636 0Z" fill="#FBDA30" p-id="781"></path><path d="M534.869394 80.04288a453.259961 453.259961 0 0 1 309.99464 121.951045A453.625871 453.625871 0 0 0 512 57.173486C260.779703 57.173486 57.173486 260.779703 57.173486 512a453.625871 453.625871 0 0 0 144.820439 332.864034A453.259961 453.259961 0 0 1 80.04288 534.869394C80.04288 283.649098 283.649098 80.04288 534.869394 80.04288z" fill="#EBB400" p-id="782"></path><path d="M316.741111 646.998035V593.689477h152.527426V503.126675H317.678756v-56.030016c44.835448 0 85.828837 8.1072 139.228873 8.1072L291.641951 265.81097l81.18635-37.471502 39.701268 41.382169s69.47722 78.89941 106.754333 121.322136c25.156334-28.289441 141.275683-162.098267 141.275683-162.098266l71.821333 29.650169-163.024477 186.385564h141.95033v68.608183H569.653743v77.001251h141.39003v67.77345H568.498839v125.061282H471.452564V646.998035z" fill="#F38500" p-id="783"></path><path d="M316.741111 659.233161V605.924602h141.515812v-90.517062H317.678756v-56.110059h142.819368L295.243881 269.927461l66.538502-29.364302 39.701269 41.382169s69.47722 78.89941 106.754333 121.322137C533.382884 374.978024 649.490799 241.180632 649.490799 241.180632l71.821332 29.65017-163.024477 186.385564h142.007504v56.395926H558.653564v89.190638H700.03216v55.538324H557.487225v137.216366h-97.046274V659.233161z" fill="#F7BF0D" p-id="784"></path></svg>