<?xml version="1.0" standalone="no"?><!DOCTYPE svg PUBLIC "-//W3C//DTD SVG 1.1//EN" "http://www.w3.org/Graphics/SVG/1.1/DTD/svg11.dtd"><svg t="1553164057236" class="icon" style="" viewBox="0 0 1024 1024" version="1.1" xmlns="http://www.w3.org/2000/svg" p-id="619" xmlns:xlink="http://www.w3.org/1999/xlink" width="200" height="200"><defs><style type="text/css"></style></defs><path d="M512.231581 0.037554C229.327531 0.037554 0 229.264941 0 512.018777s229.327531 511.981223 512.231581 511.981223 512.231581-229.227388 512.23158-511.981223S795.123113 0.037554 512.231581 0.037554z m0 960.058677c-247.203061-0.037554-448.315294-201.037126-448.315294-448.077454s201.112233-448.140044 448.315294-448.140044 448.290258 201.049644 448.290258 448.140044S759.422124 960.058678 512.231581 960.058678z" fill="#f4ea2a" p-id="620"></path><path d="M600.119604 260.321797l-70.100118 146.258891a331.210542 331.210542 0 0 0-18.538978 48.406635q-5.495349-20.929893-18.538978-48.406635l-68.610491-146.258891h-105.738518l106.764984 216.646921h-89.565419v75.87086h127.331858v41.196338H335.792086v75.87086h127.331858v93.721355h96.475288v-93.708837h129.096879v-75.883378H559.599232v-41.196338h129.096879v-75.87086h-90.979939l108.154468-216.646921z" fill="#f4ea2a" p-id="621"></path></svg>