<?xml version="1.0" standalone="no"?><!DOCTYPE svg PUBLIC "-//W3C//DTD SVG 1.1//EN" "http://www.w3.org/Graphics/SVG/1.1/DTD/svg11.dtd"><svg t="1553244177495" class="icon" style="" viewBox="0 0 1024 1024" version="1.1" xmlns="http://www.w3.org/2000/svg" p-id="16518" xmlns:xlink="http://www.w3.org/1999/xlink" width="200" height="200"><defs><style type="text/css"></style></defs><path d="M870.4 468.2c-5.4 0-10.7-2.1-14.7-6.4-110.3-118.6-228.1-177.5-350.2-175-103.8 2.1-192.4 49.1-248.4 88.1-61.6 42.8-98.6 85.8-99 86.3-7.2 8.4-19.8 9.4-28.2 2.2-8.4-7.2-9.4-19.8-2.2-28.2 1.6-1.9 40.1-46.7 105.5-92.4 38.5-26.9 78.4-48.5 118.7-64.3 50.7-19.9 102-30.5 152.5-31.6C638.5 244 766.5 307.2 885 434.6c7.5 8.1 7.1 20.7-1 28.3-3.8 3.5-8.7 5.3-13.6 5.3z" fill="#cdcdcd" p-id="16519"></path><path d="M760.9 554c-5.3 0-10.6-2.1-14.5-6.2-78-82.3-159.7-122.6-243-119.6-68.4 2.5-126 34.2-162.3 60.4-40.1 29-64 57.8-64.2 58.1-7 8.5-19.6 9.8-28.1 2.8-8.5-7-9.8-19.6-2.9-28.1 1.1-1.3 26.7-32.5 70.7-64.5 58.7-42.6 122.7-66.4 185-68.7 95.4-3.6 187.5 40.9 273.8 132 7.6 8 7.3 20.7-0.8 28.3-3.8 3.6-8.7 5.5-13.7 5.5z" fill="#cdcdcd" p-id="16520"></path><path d="M364.9 642.5c-4.5 0-9-1.5-12.8-4.6-8.5-7-9.7-19.7-2.6-28.2 2.7-3.2 66.6-79.1 158.6-81.2 57.1-1.3 111.3 25.8 161.1 80.5 7.4 8.2 6.8 20.8-1.3 28.3-8.2 7.4-20.8 6.8-28.3-1.3-41.7-45.8-85.6-68.5-130.6-67.4-74 1.7-128.2 66.1-128.7 66.7-3.9 4.7-9.6 7.2-15.4 7.2z" fill="#cdcdcd" p-id="16521"></path><path d="M511.9 739.4m-68.2 0a68.2 68.2 0 1 0 136.4 0 68.2 68.2 0 1 0-136.4 0Z" fill="#cdcdcd" p-id="16522"></path></svg>