<?xml version="1.0" standalone="no"?><!DOCTYPE svg PUBLIC "-//W3C//DTD SVG 1.1//EN" "http://www.w3.org/Graphics/SVG/1.1/DTD/svg11.dtd"><svg t="1553684293244" class="icon" style="" viewBox="0 0 1044 1024" version="1.1" xmlns="http://www.w3.org/2000/svg" p-id="3445" xmlns:xlink="http://www.w3.org/1999/xlink" width="203.90625" height="200"><defs><style type="text/css"></style></defs><path d="M0 512c0 283.2896 233.9072 512 519.79776 512 285.88544 0 519.79776-228.7104 519.79776-512S805.6832 0 519.79776 0C233.9072 0 0 228.7104 0 512z" fill="#F9E9E6" p-id="3446"></path><path d="M844.672 886.25152c-46.78144-28.58496-207.9232-23.38816-223.5136-70.1696-5.1968-12.99456-5.1968-31.19104-5.1968-49.3824 0-41.58464 5.1968-85.76512 5.1968-85.76512l-101.36064-31.18592-101.36064 31.1808s7.79776 44.1856 5.1968 85.77024c0 18.19136-2.59584 33.792-5.1968 46.78144-15.59552 46.78144-176.73216 41.58464-223.5136 70.17472-5.1968 2.59584-10.3936 7.79776-12.99456 12.99456 90.96192 77.96736 207.9232 124.7488 337.8688 124.7488 129.9456 0 246.90176-46.78144 337.8688-124.7488-2.60096-2.60096-7.79776-7.79776-12.99456-10.3936z" fill="#FCCCA7" p-id="3447"></path><path d="M517.1968 686.1312l-101.36064 31.19104s10.1376 51.97824 7.60832 93.56288c17.73568 20.7872 61.00992 8.43264 93.75232 0 32.74752-8.43776 83.62496-53.6832 101.36064-74.47552 2.08384-25.74336 2.08384-21.76 2.08384-21.76l-103.44448-28.5184z" fill="#EFAD7D" p-id="3448"></path><path d="M524.99456 1021.39904h-5.1968 5.1968z m-109.1584-207.91808c-15.5904 46.78144-179.328 41.58464-226.10944 70.17472-5.1968 2.59584-7.79776 7.79776-12.99456 12.99456 90.96192 77.96736 210.51904 124.7488 340.46464 124.7488l-38.98368-140.3392c-46.78144 0-59.776-72.77568-62.37696-67.57888z m434.03264 72.77056c-46.78144-28.58496-207.9232-20.7872-223.5136-67.57376-2.60096-7.79264-15.59552 62.37696-67.57376 62.37696l-38.98368 140.34432c129.9456 0 249.4976-46.78144 343.0656-127.34976-5.1968-2.59584-7.79776-5.1968-12.99456-7.79776z" fill="#664960" p-id="3449"></path><path d="M512 644.93056c119.13728 0 215.71584-18.67776 215.71584-182.31296 0-163.6352-96.57856-296.28416-215.71584-296.28416S296.28416 298.98752 296.28416 462.6176c0 163.6352 96.57856 182.31296 215.71584 182.31296z" fill="#FFDABE" p-id="3450"></path><path d="M761.344 965.30944c-65.2288 33.8432-138.56768 54.4-216.23808 58.09152-3.05664-14.85824-4.9664-30.37184-4.9664-45.84448 0-70.0672 106.5984-158.9248 117.67808-206.57152 7.39328-31.76448 7.39328-63.52896 0-95.29344l42.51648-82.87744c22.67136-71.23456 31.2832-112.37376 25.83552-123.4176-5.43744-11.04384-31.23712-30.09024-77.37344-57.12896 4.14208 1.67936 3.456-11.5968-2.05824-39.8336-5.51936-28.2368-8.27904-28.2368-8.27904 0v36.90496l-30.6176-16.39424c3.81952-18.176 3.81952-39.12704 0-62.85824-3.8144-23.72608-8.704-23.72608-14.65344 0l-6.92224 62.85824c-65.4592-10.92608-122.04544-8.4736-169.75872 7.3728-1.37728-28.74368-5.11488-40.2944-11.20256-34.64192-6.63552 16.0256-1.9456 31.67744 0 43.66336-35.95776 10.24-68.1216 30.2592-96.4864 60.0576l23.7312 103.64416 26.46016 73.32864c70.4256 72.88832 67.39456 72.88832-9.08288 0-57.3696-54.6816-99.16416-119.424-114.71872-191.60064-15.5392-72.14592 3.40992-173.3632 46.58176-246.21056 57.56416-97.152 136.0384-128.53248 235.40736-94.13632 68.43904-28.9792 131.7888-17.03936 190.05952 35.81952 87.40352 79.28832 113.57696 242.70336 93.2352 319.1552-13.568 50.95936-44.6464 102.62528-93.2352 154.98752 123.47392 130.6112 163.77344 221.7984 120.89856 273.55648-29.07136 27.27936-50.7136 49.19296-66.816 67.36384l0.01024 0.00512z" fill="#2B201A" p-id="3451"></path><path d="M668.60032 649.74848c22.64576-3.6352 44.79488 2.88256 66.42688 19.54304 32.4608 24.9856 31.75936 37.36064 53.74976 64.44544 14.66368 18.05312 32.81408 22.97344 54.4512 14.76096l-15.2064-14.76096c-46.78144-26.86976-70.56896-48.34816-71.3472-64.44544-0.77824-16.09728-20.62336-29.5424-59.51488-40.33536l-28.55936 20.7872z" fill="#FF7C6F" p-id="3452"></path><path d="M659.24096 636.85632c31.11936-32.80896 59.93984-50.84672 86.4768-54.10816 39.79776-4.88448 28.11904 30.5152 16.6912 36.67968-7.62368 4.10624-45.4144 17.75104-113.39264 40.92416l10.22464-23.5008z" fill="#FF7C6F" p-id="3453"></path><path d="M668.60032 649.74848c26.37312-19.62496 38.3744-30.94528 63.24224-39.07584 33.4848-10.95168 33.21344 6.72256 22.7328 11.12064-6.98368 2.92352-43.83744 18.52416-107.9808 38.22592l22.00576-10.27072z" fill="#CF2E59" p-id="3454"></path><path d="M512 779.69408c96.26624 0 197.21728-119.32672 215.71584-307.85536-85.64736-59.10016-98.7392-84.58752-217.87648-84.58752-119.1424 0-114.70848 37.95968-200.5248 84.58752 17.32608 175.29856 106.4192 307.85536 202.68544 307.85536z" fill="#FFDABE" p-id="3455"></path><path d="M519.79776 387.31264c109.98272 1.42336 124.7232 27.1104 207.91808 84.5312-18.00192 183.43424-114.06336 301.3632-207.9232 307.59424V387.31264z" fill="#FCD3B2" p-id="3456"></path><path d="M412.4416 439.8336c35.57376 1.39776 66.78528 30.58176 66.78528 30.58176s-44.1856-18.19136-75.3664-15.59552c-25.99424 2.60096-64.97792 18.19648-57.18016 10.3936 7.79776-12.98944 30.19776-26.7776 65.76128-25.37984z m213.12 0c-35.57376 1.39776-66.78016 30.58176-66.78016 30.58176s44.1856-18.19136 75.3664-15.59552c25.99424 2.60096 64.97792 18.19648 57.18016 10.3936-7.79264-12.98944-30.19776-26.7776-65.7664-25.37984z" fill="#3B2314" p-id="3457"></path><path d="M519.79776 649.74848h-38.98368l-31.19104-2.60096v2.60096l36.38784 28.58496 72.77056 5.20192 33.78688-33.792-25.98912-2.59584z" fill="#FFFFFF" p-id="3458"></path><path d="M522.3936 671.70816c-41.57952 0-77.96736-32.77312-77.96736-32.77312l-7.79776-2.18624s33.792 56.9856 85.76512 54.79424c59.78112 0 85.77024-54.79424 85.77024-54.79424l-7.79776 2.18624c-2.60096 0-33.792 32.768-77.97248 32.768z" fill="#851E19" p-id="3459"></path><path d="M522.3936 678.33344c-41.57952 0-77.96736-38.98368-77.96736-38.98368l-7.79776-2.60096s33.792 67.7888 85.76512 65.18272c59.78112 0 85.77024-65.1776 85.77024-65.1776l-7.79776 2.59584c-2.60096 0-33.792 38.98368-77.97248 38.98368z" fill="#FF7C6F" p-id="3460"></path><path d="M522.3936 644.54656c-5.1968 0-10.3936-5.1968-20.7872-5.1968-15.59552 0-63.1808-3.18464-63.1808 0s19.1232 17.77664 84.10112 17.77664c72.77056 0 85.2736-21.04832 85.2736-21.04832s-49.91488 0.67072-62.90944 3.2768c-12.99456 0-14.6944 5.19168-22.49728 5.19168z" fill="#FF7C6E" p-id="3461"></path><path d="M313.2672 416.39424l11.63264 146.61632c-7.19872 2.65216-12.5696 1.80736-16.10752-2.54976-14.72512-18.1248-25.40544-52.88448-27.43808-69.6576-3.94752-51.24096 6.68672-76.04736 31.91808-74.40896h-0.00512z" fill="#FFDABE" p-id="3462"></path><path d="M313.56416 435.34336l5.87264 101.66272c-4.57728 1.92-7.9616 1.3824-10.15808-1.60768-9.12896-12.43136-15.52384-36.4544-16.64-48.0768-1.98144-35.5328 4.98688-52.85376 20.92544-51.97824z" fill="#EFAD7D" p-id="3463"></path><path d="M301.48096 550.98368a10.3936 10.3936 0 1 0 20.79232 0 10.3936 10.3936 0 0 0-20.7872 0z" fill="#408799" p-id="3464"></path><path d="M728.84224 416.2048l-16.7424 146.1248c7.10144 2.90304 12.4928 2.24256 16.18432-1.98656 15.34976-17.60256 27.23328-51.968 29.8496-68.6592 5.7344-51.072-4.02432-76.2368-29.29664-75.47392z" fill="#FFDABE" p-id="3465"></path><path d="M727.8848 435.13856l-9.4208 101.39136c4.5056 2.07872 7.9104 1.65888 10.20928-1.2544 9.55392-12.10368 16.78848-35.8912 18.30912-47.4624 3.22048-35.44064-3.14368-52.99712-19.0976-52.67456z" fill="#EFAD7D" p-id="3466"></path><path d="M738.46272 551.7056a10.3936 10.3936 0 1 1-20.77696-0.72704 10.3936 10.3936 0 0 1 20.77696 0.72704z" fill="#408799" p-id="3467"></path><path d="M365.76768 512.94208s32.9728 30.68416 53.98016 30.68416c21.00736 0 42.2144-22.6304 53.82144-22.6304-2.00704-11.90912-27.1104-38.73792-56.20736-38.73792-29.10208 0-51.59424 30.68416-51.59424 30.68416z" fill="#FFFFFF" p-id="3468"></path><path d="M395.04384 514.60096a25.98912 25.98912 0 1 0 51.98336 0 25.98912 25.98912 0 0 0-51.98336 0z" fill="#408799" p-id="3469"></path><path d="M402.8416 514.60096a18.19136 18.19136 0 1 0 36.38784 0 18.19136 18.19136 0 0 0-36.38784 0z" fill="#000101" p-id="3470"></path><path d="M363.08992 514.78016c21.18656-6.3488 40.04864-11.0336 56.576-14.05952 24.80128-4.5312 40.26368 12.22144 53.90336 20.2752-2.00704-11.90912-27.1104-38.73792-56.20736-38.73792-19.4048 0-37.48864 10.84416-54.272 32.52224z" fill="#7B6358" p-id="3471"></path><path d="M374.08768 511.62112c17.20832-6.62016 32.2304-9.92768 45.07136-9.92768 19.26144 0 28.8512 6.8352 41.61024 14.1824-1.55136-5.82656-20.93056-23.22432-43.392-23.22432-14.976 0-29.40416 6.32832-43.2896 18.9696z" fill="#0C0D0B" p-id="3472"></path><path d="M678.36928 512.94208s-32.9728 30.68416-53.98016 30.68416c-21.00736 0-42.2144-22.6304-53.82144-22.6304 2.00704-11.90912 27.1104-38.73792 56.20736-38.73792 29.10208 0 51.59424 30.68416 51.59424 30.68416z" fill="#FFFFFF" p-id="3473"></path><path d="M651.8272 514.60096a25.98912 25.98912 0 1 1-51.98336 0 25.98912 25.98912 0 0 1 51.98336 0z" fill="#408799" p-id="3474"></path><path d="M644.02944 514.60096a18.19136 18.19136 0 1 1-36.38784 0 18.19136 18.19136 0 0 1 36.38784 0z" fill="#000101" p-id="3475"></path><path d="M678.36928 514.78016c-21.18656-6.3488-40.04864-11.0336-56.576-14.05952-24.80128-4.5312-40.26368 12.22144-53.90336 20.2752 2.01216-11.90912 27.1104-38.73792 56.20736-38.73792 19.4048 0 37.48864 10.84416 54.272 32.52224z" fill="#7B6358" p-id="3476"></path><path d="M665.56928 511.62112c-17.2032-6.62016-32.22528-9.92768-45.06624-9.92768-19.26144 0-28.8512 6.8352-41.61536 14.1824 1.55648-5.82656 20.93568-23.22432 43.39712-23.22432 14.976 0 29.40416 6.32832 43.28448 18.9696z" fill="#0C0D0B" p-id="3477"></path></svg>