<?xml version="1.0" standalone="no"?><!DOCTYPE svg PUBLIC "-//W3C//DTD SVG 1.1//EN" "http://www.w3.org/Graphics/SVG/1.1/DTD/svg11.dtd"><svg t="1553684243460" class="icon" style="" viewBox="0 0 1025 1024" version="1.1" xmlns="http://www.w3.org/2000/svg" p-id="2210" xmlns:xlink="http://www.w3.org/1999/xlink" width="200.1953125" height="200"><defs><style type="text/css"></style></defs><path d="M692.7 948.3h-579c-62.7 0-113.7-51-113.7-113.7V316c0-62.7 51-113.7 113.7-113.7h135.7l92.6-170.5h319.6l115.7 170.5h132.2c62.7 0 113.7 51 113.7 113.7v309h-56.8V316c0-31.3-25.5-56.8-56.8-56.8H747L631.3 88.6H375.7l-92.6 170.5H113.6C82.3 259.1 56.8 284.6 56.8 316v518.7c0 31.3 25.5 56.8 56.8 56.8h579v56.8z" fill="#333333" p-id="2211"></path><path d="M511.5 742.3c-109.7 0-198.9-89.2-198.9-198.9s89.2-199 198.9-199 198.9 89.2 198.9 198.9-89.2 199-198.9 199z m0-369.5c-94 0-170.5 76.5-170.5 170.5s76.5 170.5 170.5 170.5 170.5-76.5 170.5-170.5-76.5-170.5-170.5-170.5z" fill="#349AE8" p-id="2212"></path><path d="M749.5 800.9h257.6v28.4H749.5z" fill="#333333" p-id="2213"></path><path d="M864.1 686.3h28.4v257.6h-28.4z" fill="#333333" p-id="2214"></path></svg>