<?xml version="1.0" standalone="no"?><!DOCTYPE svg PUBLIC "-//W3C//DTD SVG 1.1//EN" "http://www.w3.org/Graphics/SVG/1.1/DTD/svg11.dtd"><svg t="1553684911211" class="icon" style="" viewBox="0 0 1024 1024" version="1.1" xmlns="http://www.w3.org/2000/svg" p-id="4480" xmlns:xlink="http://www.w3.org/1999/xlink" width="200" height="200"><defs><style type="text/css"></style></defs><path d="M138.092823 462.065867c0 222.853961 180.662506 403.504177 403.504177 403.504176s403.504177-180.662506 403.504176-403.504176S764.46325 58.5494 541.609289 58.5494s-403.504177 180.662506-403.504176 403.504177z m0 0" fill="#C55C44" p-id="4481"></path><path d="M485.345823 619.057897s17.328853-4.498128 54.92386-4.498127 58.119251 4.498128 58.119251 4.498127l7.128181 30.024388c97.201344 18.43495 215.406241 92.875276 215.074412 96.808065l-110.892367 87.062122-166.160346 48.029189s-186.868939-39.020643-220.641766-62.28555-74.452616-77.303889-74.452617-77.303888c76.554201-46.320883 153.157561-77.230149 229.822372-94.362362z m0 0" fill="#FFFFFF" p-id="4482"></path><path d="M494.01025 550.553625l1.536245 116.336821h91.904369v-116.336821z m0 0" fill="#E2A77A" p-id="4483"></path><path d="M382.294455 355.069419s-35.640903-4.055689-35.640902 46.701872 49.528565 61.351512 49.528564 61.351513 79.503793 150.293999 144.112146 150.293999S682.734974 463.331733 682.734974 463.331733s50.179933-29.655689 51.06481-62.678829-17.881901-39.217283-30.724916-41.085357l6.575132-34.903505-169.847336-81.802016-162.878924 74.292847z m0 0" fill="#EAB78C" p-id="4484"></path><path d="M378.066707 366.327028s-13.936822-137.340374 14.747959-181.252424c5.469035-8.357177 19.209217-6.071243 26.398848-12.007297 30.540566-25.255881 48.594527-44.243879 101.318483-44.243879 52.109458 0 130.507153 28.623332 156.598752 49.528564 55.796447 51.789918 27.627844 184.619875 27.627844 184.619875l-24.026884 76.554201-5.112626-62.28555s-5.112626-78.041287-114.911186-78.041286c-33.391839 0-95.787998-23.645895-113.44868-18.43495-40.40941 12.130197-29.852328 82.822084-41.650696 94.927701v63.784925z m0 0" fill="" p-id="4485"></path><path d="M521.859313 643.82218l3.281422 23.080556h-12.756986m49.676045-23.080556l-3.330581 23.068266h12.769275" fill="#EDEDED" p-id="4486"></path><path d="M516.046159 661.605761h49.577725l-24.715123 25.63687z m0 0" fill="#EBC054" p-id="4487"></path><path d="M529.884662 672.187422l-24.653673 190.1012 35.173884 29.004321 37.656457-29.32386-25.391071-189.781661z m0 0" fill="#EBC054" p-id="4488"></path><path d="M539.409386 17.205953C294.113946 17.205953 95.25 216.069899 95.25 461.365338c0 182.77638 102.53519 329.838118 260.289198 398.022852 84.800768 81.949496 183.870187 164.59952 183.870188 164.59952s117.246279-90.859722 192.497743-164.59952C880.812362 787.663946 983.568771 637.714066 983.568771 461.365338 983.568771 216.069899 784.717115 17.205953 539.409386 17.205953z m0.860297 846.778685C303.52806 863.984638 144.102616 635.010274 144.102616 471.93471c0-218.761402 177.430245-396.130197 396.191647-396.130197s396.130197 177.381085 396.130197 396.167066c0 157.31157-159.400864 392.049928-396.154777 392.049928z m0 0" fill="#FFFFFF" p-id="4489"></path><path d="M485.370403 621.110322l-7.029861 27.971963 28.266923 31.855593 15.251848-37.115698z m113.067691 0l7.017571 27.971963-28.266923 31.855593-15.251848-37.127988z m0 0" fill="#FFFFFF" p-id="4490"></path></svg>