<?xml version="1.0" standalone="no"?><!DOCTYPE svg PUBLIC "-//W3C//DTD SVG 1.1//EN" "http://www.w3.org/Graphics/SVG/1.1/DTD/svg11.dtd"><svg t="1553685071904" class="icon" style="" viewBox="0 0 1380 1024" version="1.1" xmlns="http://www.w3.org/2000/svg" p-id="1505" xmlns:xlink="http://www.w3.org/1999/xlink" width="269.53125" height="200"><defs><style type="text/css"></style></defs><path d="M880.602633 843.406394L750.38108 640.262289c-32.561708-51.471769-92.249747-81.265227-116.671028-65.009654-24.421281 18.960622-2.717689 78.547537 13.563165 102.930898l146.502407 227.527466c16.293495 27.088409 46.137514 43.331342 78.686582 43.331341h151.937786V840.713986l-143.797359 2.705049z" fill="#4E4E4E" p-id="1506"></path><path d="M196.895239 843.406394L327.129432 640.262289c32.561708-51.471769 92.249747-81.265227 116.671029-65.009654 24.408641 18.960622 2.705049 78.547537-13.575806 102.930898l-146.502407 227.527466c-16.280854 27.088409-46.137514 43.331342-78.686582 43.331341h-151.937785V840.713986l143.797358 2.705049z" fill="#424242" p-id="1507"></path><path d="M460.068674 605.046093H614.698868V1030.320207H460.068674z" fill="#E8E8E8" p-id="1508"></path><path d="M601.148344 1027.602518l-43.407185-316.920479H519.769353l-43.407184 316.920479z" fill="#CA2E00" p-id="1509"></path><path d="M587.585179 632.134502h-97.672485l29.844019 78.547537h37.984446z" fill="#B91F00" p-id="1510"></path><path d="M492.630383 697.144155l-75.968893-97.508159 13.563165-2.71769 35.266757-48.754079 73.263844 83.970275zM584.867489 697.144155l73.263844-97.508159-10.858116-2.71769-35.266757-48.754079-73.251204 83.970275z" fill="#F2F2F2" p-id="1511"></path><path d="M584.867489 691.721417l62.405728-94.803111-29.831379-43.331341c-2.717689-2.717689-8.153068-5.422738-10.870757-5.422738H473.631839c-5.422738 0-8.127787 2.705049-10.845475 5.422738l-29.84402 43.331341 62.405728 94.803111 46.112233-59.586915 43.419825 59.586915z" fill="#FFFFFF" p-id="1512"></path><path d="M606.583722 556.292013H468.196461c-2.705049 0-2.705049 2.705049-2.705049 5.422738l70.533515 70.40711 70.533514-70.40711c5.435378-2.717689 2.717689-5.422738 0-5.422738z" fill="#ADADAD" p-id="1513"></path><path d="M603.866033 564.4198l-65.110777 67.714702-65.123417-67.714702v-65.009653h130.234194z" fill="#FFD3C0" p-id="1514"></path><path d="M568.599276 1027.602518v-105.648586l-122.093767-354.816443c-56.970349 0-103.095223 46.036391-103.095222 102.918257v360.251821h225.188989v-2.705049z" fill="#4E4E4E" p-id="1515"></path><path d="M731.382537 1027.602518v-360.251821c0-56.881866-46.124873-102.930897-103.095223-102.930897l-122.093766 354.829083v105.635946h225.188989v2.717689z" fill="#666666" p-id="1516"></path><path d="M568.599276 921.953932l-119.376077-354.816443-51.547612 48.74144 24.408641 24.38336-29.831379 32.498506z" fill="#666666" p-id="1517"></path><path d="M506.193548 921.953932l122.093766-354.816443 51.547611 48.74144-24.421281 24.38336 29.844019 32.498506z" fill="#4E4E4E" p-id="1518"></path><path d="M392.240209 282.715517c-29.831379 0-51.547611 24.38336-51.547612 54.176817 0 29.793458 24.421281 51.459129 51.547612 54.176818v-108.353635zM685.257663 282.715517c29.844019 0 51.547611 24.38336 51.547612 54.176817 0 29.793458-24.408641 51.459129-51.547612 54.176818v-108.353635z" fill="#FFD3C0" p-id="1519"></path><path d="M378.677044 168.951784l13.563165 260.038612c0 51.459129 40.702136 81.252586 65.123417 100.213208 10.845476 8.127787 24.408641 10.832835 35.266757 10.832836h84.10932c10.845476 0 24.408641-2.705049 35.266757-10.832836 24.421281-16.255573 67.828466-48.75408 67.828465-100.213208l13.563166-260.038612H378.677044z" fill="#FFD3C0" p-id="1520"></path><path d="M549.600732 79.571411c127.516504 0 149.220096 73.124799 154.655475 97.508159v8.127787L696.103139 350.430218h-10.858116V209.578077c0-18.960622-16.280854-35.203555-35.266757-35.203555-40.702136 10.832835-81.404271 16.242933-122.093766 13.537884V114.774966h18.998543V79.571411h2.705049z" fill="#975837" p-id="1521"></path><path d="M552.318421 79.571411h-24.421281c-127.516504 0-149.220096 73.124799-154.642834 97.508159v8.127787l8.140427 165.222861h10.845476V209.578077c0-18.960622 16.280854-35.203555 35.266757-35.203555 32.561708 8.127787 67.841106 13.537884 103.107863 13.537884h27.12633c78.686582-5.410098 75.968893-108.340995-5.422738-108.340995z" fill="#975837" p-id="1522"></path><path d="M584.867489 456.066165h-94.954795c0 16.255573 13.563165 27.088409 27.13897 27.088409h40.702136c16.268214 0 27.12633-10.832835 27.12633-27.088409z" fill="#FAA67A" p-id="1523"></path><path d="M546.895683 55.188051v132.724355c54.25266 0 75.968893-32.498506 75.968893-67.714702s-32.561708-65.009653-75.968893-65.009653z" fill="#975837" p-id="1524"></path></svg>