<?xml version="1.0" standalone="no"?><!DOCTYPE svg PUBLIC "-//W3C//DTD SVG 1.1//EN" "http://www.w3.org/Graphics/SVG/1.1/DTD/svg11.dtd"><svg t="1553853006473" class="icon" style="" viewBox="0 0 1043 1024" version="1.1" xmlns="http://www.w3.org/2000/svg" p-id="7208" xmlns:xlink="http://www.w3.org/1999/xlink" width="203.7109375" height="200"><defs><style type="text/css"></style></defs><path d="M557.10406 1008.140359a57.921009 57.921009 0 0 1-79.641388 0A4062.000368 4062.000368 0 0 1 96.052827 584.737782C-4.150518 454.125907-28.766947 279.204459 35.525373 149.171794A256.59007 256.59007 0 0 1 272.132695 0.025196 284.392155 284.392155 0 0 1 521.482639 146.854954 289.605045 289.605045 0 0 1 770.832583 0.025196a256.59007 256.59007 0 0 1 236.607323 149.146598c64.002715 130.032665 39.675891 305.243718-60.527455 434.407568a3624.986354 3624.986354 0 0 1-389.808391 424.560997zM272.132695 57.946205A197.800246 197.800246 0 0 0 87.075071 173.788223c-54.156144 111.497943-32.14616 262.382171 55.024959 376.486559a3673.350397 3673.350397 0 0 0 356.793416 395.890097 28.960505 28.960505 0 0 0 39.675891 0A3519.570118 3519.570118 0 0 0 900.865249 550.274782c87.171119-114.104388 109.181102-264.988617 55.024958-376.486559a197.800246 197.800246 0 0 0-184.478413-115.842018c-126.2678 0-207.357213 124.53017-236.896928 179.265523a14.190647 14.190647 0 0 1-25.195639 0C479.489908 182.476374 398.400495 57.946205 272.132695 57.946205z" fill="#d81e06" p-id="7209"></path><path d="M159.186727 368.692419a14.480252 14.480252 0 0 1-14.190647-11.004992A164.495666 164.495666 0 0 1 213.632476 173.788223a131.480691 131.480691 0 0 1 151.463439 0 14.480252 14.480252 0 1 1-17.955513 22.878799 102.809791 102.809791 0 0 0-117.869254 2.027235A134.955951 134.955951 0 0 0 173.956585 351.026511a14.480252 14.480252 0 0 1-10.715387 17.376302z" fill="#d81e06" p-id="7210"></path></svg>