<?xml version="1.0" standalone="no"?><!DOCTYPE svg PUBLIC "-//W3C//DTD SVG 1.1//EN" "http://www.w3.org/Graphics/SVG/1.1/DTD/svg11.dtd"><svg t="1553668588025" class="icon" style="" viewBox="0 0 1024 1024" version="1.1" xmlns="http://www.w3.org/2000/svg" p-id="2761" xmlns:xlink="http://www.w3.org/1999/xlink" width="200" height="200"><defs><style type="text/css"></style></defs><path d="M516.378483 891.056552c-214.510345 0-388.413793-173.903448-388.413793-388.413793s173.903448-388.413793 388.413793-388.413793 388.413793 173.903448 388.413793 388.413793-173.903448 388.413793-388.413793 388.413793z m0-35.310345c195.019034 0 353.103448-158.084414 353.103448-353.103448s-158.084414-353.103448-353.103448-353.103449-353.103448 158.084414-353.103449 353.103449 158.084414 353.103448 353.103449 353.103448z" fill="#cdcdcd" p-id="2762"></path><path d="M521.886897 290.78069c41.736828 0 74.857931 11.440552 99.998896 34.321655 23.799172 21.609931 35.734069 50.846897 35.734069 87.710896 0 26.694621-8.615724 50.846897-25.176276 71.821242-7.273931 8.898207-24.470069 24.787862-52.25931 48.940138-15.889655 13.34731-26.482759 25.423448-33.121104 36.228413a91.595034 91.595034 0 0 0-13.876965 48.940138v18.432h-40.395035v-18.432c0-18.432 3.990069-35.592828 11.899587-50.846896 9.286621-19.067586 29.131034-42.584276 60.910344-69.278897 14.583172-13.982897 25.140966-24.152276 30.437518-30.508138 13.912276-17.160828 21.186207-34.957241 21.186207-54.024827 0-27.330207-8.580414-48.940138-24.470069-64.829793-17.231448-16.525241-41.701517-24.152276-72.809931-24.152276-35.769379 0-62.216828 11.440552-80.119173 34.321655-15.889655 19.067586-23.799172 45.762207-23.799172 78.81269h-39.724138c0-43.219862 12.570483-77.541517 36.369655-104.236138 26.482759-29.236966 62.923034-43.219862 109.250207-43.219862zM513.306483 689.928828c9.286621 0 17.231448 2.542345 23.834483 8.898206a28.742621 28.742621 0 0 1 9.922206 22.881104 30.614069 30.614069 0 0 1-9.922206 22.881103 35.486897 35.486897 0 0 1-23.834483 8.898207 34.745379 34.745379 0 0 1-24.470069-9.533793 28.63669 28.63669 0 0 1-9.286621-22.245517c0-9.533793 2.648276-17.160828 9.286621-22.881104 6.603034-6.355862 15.183448-8.898207 24.470069-8.898206z" fill="#cdcdcd" p-id="2763"></path></svg>