<?xml version="1.0" standalone="no"?><!DOCTYPE svg PUBLIC "-//W3C//DTD SVG 1.1//EN" "http://www.w3.org/Graphics/SVG/1.1/DTD/svg11.dtd"><svg t="1553852879649" class="icon" style="" viewBox="0 0 1024 1024" version="1.1" xmlns="http://www.w3.org/2000/svg" p-id="6983" xmlns:xlink="http://www.w3.org/1999/xlink" width="200" height="200"><defs><style type="text/css"></style></defs><path d="M927.416 98.282h-67.11c-15.132 0-28.075 10.861-30.702 25.765l-15.328 86.828h-592.62c-17.224 0-31.18 13.956-31.18 31.185 0 17.224 13.956 31.18 31.18 31.18h581.612l-49.695 281.523c-8.093 37.225-29.64 81.31-86.273 81.31H292.509c-32.765 0-57.413-5.938-76.2-82.719-0.112-0.478-0.245-0.946-0.376-1.409l-90.158-305.804c-4.885-16.507-22.201-25.945-38.737-21.095-16.517 4.871-25.955 22.211-21.095 38.737l89.958 305.112c15.806 64.183 44.51 129.544 136.607 129.544H667.3c74.68 0 129.767-49.029 147.371-131.139 0.082-0.374 0.151-0.74 0.215-1.116l71.579-405.537h40.951c17.227 0 31.185-13.958 31.185-31.181 0-17.227-13.958-31.184-31.185-31.184z m0 0" fill="#EA5F5F" p-id="6984"></path><path d="M361.008 331.497c-17.224 0-31.18 13.958-31.18 31.185v30.42c0 17.229 13.956 31.186 31.18 31.186 17.229 0 31.185-13.958 31.185-31.186v-30.42c0-17.228-13.956-31.185-31.185-31.185z m0 0M604.388 331.497c-17.229 0-31.186 13.958-31.186 31.185v30.42c0 17.229 13.958 31.186 31.186 31.186 17.224 0 31.18-13.958 31.18-31.186v-30.42c0-17.228-13.956-31.185-31.18-31.185z m0 0M559.372 472.331c-14.517-9.278-33.793-5.076-43.08 9.437-0.122 0.196-13.357 19.423-33.916 19.423-19.978 0-32.399-18.101-33.233-19.349-9.155-14.386-28.231-18.779-42.759-9.736-14.624 9.087-19.124 28.31-10.028 42.939 11.198 18.019 41.915 48.511 86.02 48.511 43.88 0 74.972-30.259 86.434-48.145 9.292-14.493 5.066-33.794-9.438-43.08z m0 0M295.6 737.34c-51.587 0-93.551 41.964-93.551 93.546 0 51.587 41.964 93.551 93.551 93.551 51.582 0 93.546-41.964 93.546-93.551 0.001-51.585-41.963-93.546-93.546-93.546z m0 124.733c-17.199 0-31.185-13.986-31.185-31.186 0-17.194 13.986-31.18 31.185-31.18 17.194 0 31.18 13.986 31.18 31.18 0 17.2-13.986 31.186-31.18 31.186z m0 0M669.801 737.34c-51.587 0-93.551 41.964-93.551 93.546 0 51.587 41.964 93.551 93.551 93.551 51.582 0 93.547-41.964 93.547-93.551-0.001-51.585-41.96-93.546-93.547-93.546z m0 124.733c-17.199 0-31.185-13.986-31.185-31.186 0-17.194 13.986-31.18 31.185-31.18 17.194 0 31.18 13.986 31.18 31.18 0 17.2-13.986 31.186-31.18 31.186z m0 0" fill="#EA5F5F" p-id="6985"></path></svg>