<?xml version="1.0" standalone="no"?><!DOCTYPE svg PUBLIC "-//W3C//DTD SVG 1.1//EN" "http://www.w3.org/Graphics/SVG/1.1/DTD/svg11.dtd"><svg t="1553309350654" class="icon" style="" viewBox="0 0 1024 1024" version="1.1" xmlns="http://www.w3.org/2000/svg" p-id="9963" xmlns:xlink="http://www.w3.org/1999/xlink" width="200" height="200"><defs><style type="text/css"></style></defs><path d="M930.752 416.576V291.712c0-47.424-41.344-86.016-92.096-86.016h-180.288L424.832 74.944c-39.168-21.888-90.176-9.92-113.6 26.624L244.544 205.632H92.096C41.344 205.632 0 244.224 0 291.712l0.96 518.272C0.96 857.344 42.24 896 93.056 896H839.68c50.752 0 92.032-38.656 92.032-86.08l-0.896-169.088h12.096c44.736 0 81.152-33.984 81.152-75.84V492.352c0-41.792-36.416-75.84-81.152-75.84l-12.16 0.064zM413.76 113.664L574.72 203.712l-282.432 1.984 51.072-79.68c9.152-14.208 32.128-32.448 70.4-12.352z m482.56 707.776c0 18.432-16 33.408-35.712 33.408H78.464c-19.712 0-35.712-14.976-35.712-33.408L41.792 279.808c0-18.432 16-33.408 35.712-33.408h782.208c19.712 0 35.712 14.976 35.712 33.408v136.768h-159.104c-44.736 0-81.152 33.984-81.152 75.84V565.12c0 41.792 36.352 75.776 81.152 75.776h159.104l0.896 169.088v11.456z m46.528-220.096h-206.528c-16.832 0-38.784 0-38.784-36.224V492.352c0-20.032 17.408-36.288 38.784-36.288h206.528c21.376 0 38.784 16.256 38.784 36.288v72.704c0.064 19.968-17.408 36.224-38.784 36.288z m0 0" fill="#5CB531" p-id="9964"></path><path d="M755.52 537.856c0 13.888 12.032 25.152 26.816 25.152s26.816-11.264 26.816-25.152c0-13.888-12.032-25.088-26.816-25.088-14.784 0-26.816 11.264-26.816 25.088z m0 0" fill="#5CB531" p-id="9965"></path></svg>