<?xml version="1.0" standalone="no"?><!DOCTYPE svg PUBLIC "-//W3C//DTD SVG 1.1//EN" "http://www.w3.org/Graphics/SVG/1.1/DTD/svg11.dtd"><svg t="1553047610121" class="icon" style="" viewBox="0 0 1024 1024" version="1.1" xmlns="http://www.w3.org/2000/svg" p-id="718" xmlns:xlink="http://www.w3.org/1999/xlink" width="200" height="200"><defs><style type="text/css"></style></defs><path d="M30.1 866.4L75 588C25.8 526.2 0 454.6 0 379.7 0 170.3 206.1 0 459.3 0s459.3 170.3 459.3 379.7c0 21-2.1 42-6.2 62.7l-84.4-17c3-15.1 4.5-30.5 4.5-45.8C832.5 217.7 665.1 86 459.3 86S86.1 217.8 86.1 379.7c0 60.1 23.1 117.9 66.8 167.2l13.5 15.3-24.3 150.4 144.1-73.5 19 8.9c7.8 3.6 15.3 6.8 22.3 9.5L303.9 720l2.8 5.4-6 3-3.7 9.6c-2.8-1.1-5.6-2.2-8.5-3.4L30.1 866.4z" fill="#979797" p-id="719"></path><path d="M1000.4 1021.2L795.8 920c-45.8 18.3-78.2 19.1-135.5 19.1-200.7 0-363.9-131.3-363.9-292.7s163.2-292.7 363.9-292.7 363.9 131.3 363.9 292.7c0 57.8-20.5 113-59.4 160.6l35.6 214.2zM797.6 845.6l114.6 56.7L893 786.5l11-12.1c34.5-37.8 52.7-81.9 52.7-127.8 0-124.2-132.9-225.2-296.4-225.2s-296.4 101-296.4 225.2 132.9 225.2 296.4 225.2c58.9 0 81.4-1 122.8-19.6l14.5-6.6z" fill="#979797" p-id="720"></path><path d="M315.8 315.8m-43.1 0a43.1 43.1 0 1 0 86.2 0 43.1 43.1 0 1 0-86.2 0Z" fill="#999999" p-id="721"></path><path d="M545.4 631.6m-43.1 0a43.1 43.1 0 1 0 86.2 0 43.1 43.1 0 1 0-86.2 0Z" fill="#999999" p-id="722"></path><path d="M545.4 315.8m-43.1 0a43.1 43.1 0 1 0 86.2 0 43.1 43.1 0 1 0-86.2 0Z" fill="#999999" p-id="723"></path><path d="M775.1 631.6m-43.1 0a43.1 43.1 0 1 0 86.2 0 43.1 43.1 0 1 0-86.2 0Z" fill="#999999" p-id="724"></path></svg>