<?xml version="1.0" standalone="no"?><!DOCTYPE svg PUBLIC "-//W3C//DTD SVG 1.1//EN" "http://www.w3.org/Graphics/SVG/1.1/DTD/svg11.dtd"><svg t="1553302916854" class="icon" style="" viewBox="0 0 1024 1024" version="1.1" xmlns="http://www.w3.org/2000/svg" p-id="16381" xmlns:xlink="http://www.w3.org/1999/xlink" width="200" height="200"><defs><style type="text/css"></style></defs><path d="M212.2 607.5c-9.2-34.7-18.4-63.9-24.6-93.8-13.1-62.8 1.9-120.6 48-163.7 27-25.3 34.7-46.8 22-80-18.5-48.3 5.2-70.8 50.7-82 100.7-24.7 200.8-51.3 301.3-76.8 65.1-16.5 85.5-4.8 104.1 61.4 10.6 38 12.7 79.7 70.8 76.9 12.5-0.6 33.7 21.5 38.2 36.8 27.5 93.7 52.9 188.2 75.1 283.4 4.1 17.4-3.4 48.1-16.4 57-37.6 25.7-31.1 54.7-22.4 90.4 24 97.4 22.5 96.4-77.5 120.8-85.6 20.9-171 43.3-255.4 68.6-44.4 13.3-82.6 17.5-110-32.9-39.4 22.8-75.3 43.7-120.3 69.8-39.8-51.9-80-104.1-119.8-156.5-4.6-6.1-7-13.7-11.2-20.2-57.4-89-57.5-88.9 34.6-151.3 4.6-3.4 9.7-6.1 12.8-7.9zM302 246c15.9 32.8 20.7 62 37.7 74.2 49.2 35.4 105.8 60.5 154.3 96.7 23 17.1 47.9 50.8 46.8 75.8-1.2 28-25.8 61.2-49.8 80.2-21.6 17.1-56.1 18-83.3 25.6 18.9 79.7 36.3 159.7 58.4 238.5 3.5 12.4 30.9 29.1 43.3 26.3 74.3-16.9 147.5-38.6 220.9-59.3 88.6-24.9 96.7-44.5 52.8-132.7-63.7 18.7-87.6-20.6-104.7-74.2-16.2-50.7-37-100-56.8-149.6-49.6-124.4-44.5-146.1 51.9-191.8-7-32.9-14.4-67.3-22.2-103.8C534.7 183.1 424.9 212.8 302 246z m17.3 119c-84.4 23.8-82.2 82.8-76.3 142.1 2.4 24.7 5.5 51.3 16.6 72.7 24.5 47.3-1.2 70.1-36.8 90.6-12.9 7.4-26.4 13.7-48.5 25 46.6 62.1 90 120.1 132.8 177.3 94.6-52.4 94.6-52.4 74-150-3.2-15-5.8-30.2-9.8-45-14.4-53.9-29.2-107.6-44.5-163.4 45.5 7.7 83 18.1 120.7 18.6 16 0.2 32.2-20.2 48.3-31.2-10-11.8-18.2-26.1-30.4-34.9-49.3-35.8-99.9-69.9-146.1-101.8z m320.9-29.7c33.3 89.7 63.4 178.1 101.1 263.2 4.9 11 49.6 8.8 74.5 4.6 13.3-2.2 35.6-24.6 33.6-33.2-20-85.3-43.2-169.9-68.7-253.8-3-9.9-27.1-22.1-37.9-19.4-32.5 8.3-63.4 23.3-102.6 38.6z" fill="#368CDB" p-id="16382"></path><path d="M707.4 738.2c-43.9 11.7-87.5 24.9-132 33.9-10.5 2.1-23.8-9.7-35.9-15.2 6.5-9.3 11.1-23.3 19.9-27 31.3-13.1 63.4-26.7 96.5-31.9 17.7-2.8 38 11.4 57.2 18l-5.7 22.2z" fill="#448FD6" p-id="16383"></path></svg>