<?xml version="1.0" standalone="no"?><!DOCTYPE svg PUBLIC "-//W3C//DTD SVG 1.1//EN" "http://www.w3.org/Graphics/SVG/1.1/DTD/svg11.dtd"><svg t="1553309256874" class="icon" style="" viewBox="0 0 1024 1024" version="1.1" xmlns="http://www.w3.org/2000/svg" p-id="3329" xmlns:xlink="http://www.w3.org/1999/xlink" width="200" height="200"><defs><style type="text/css"></style></defs><path d="M111.2 946.3l22.8-58.5c16.6-42.5 30.1-89 31.3-106.8-85.8-70.5-133-163.1-133-261.5 0-208.3 214.8-377.8 478.9-377.8 264.1 0 478.9 169.4 478.9 377.8 0 208.3-214.8 377.8-478.9 377.8-60.6 0-119.6-8.8-175.4-26.1-19.9 2.5-99.8 29.1-165.6 53.4l-59 21.7z m400-748.2c-233 0-422.5 144.1-422.5 321.3 0 83.3 42 162.5 118.5 222.9 10 7.8 27.1 21.4-0.4 108.9 120.1-42 134.1-37.6 142.2-35.1 51.4 16.3 105.9 24.6 162.1 24.6 233 0 422.5-144.1 422.5-321.4 0.1-177.1-189.4-321.2-422.4-321.2z m0 0" fill="#00A543" p-id="3330"></path><path d="M892.5 311.7l-441.9 207c-12 6.7-27 5.6-37.8-3L284.5 413.8c-6.2-4.9-14-7.6-22.1-7.3l-30.1 0.8 175 203.7c11.1 12.2 29.4 14.8 43.5 5.9l441.8-281.4v-23.8z m0 0" fill="#00A543" p-id="3331"></path></svg>