<?xml version="1.0" standalone="no"?><!DOCTYPE svg PUBLIC "-//W3C//DTD SVG 1.1//EN" "http://www.w3.org/Graphics/SVG/1.1/DTD/svg11.dtd"><svg t="1553302690090" class="icon" style="" viewBox="0 0 1024 1024" version="1.1" xmlns="http://www.w3.org/2000/svg" p-id="8345" xmlns:xlink="http://www.w3.org/1999/xlink" width="200" height="200"><defs><style type="text/css"></style></defs><path d="M51.2 0h921.6c28.16 0 51.2 23.04 51.2 51.2v921.6c0 28.16-23.04 51.2-51.2 51.2H51.2c-28.16 0-51.2-23.04-51.2-51.2V51.2C0 23.04 23.04 0 51.2 0z" fill="#3377FF" p-id="8346"></path><path d="M512 299.52l220.16-17.92c7.68 0 12.8 5.12 12.8 12.8v2.56l-17.92 220.16-235.52 235.52c-10.24 10.24-25.6 10.24-35.84 0l-181.76-181.76c-10.24-10.24-10.24-25.6 0-35.84l238.08-235.52z m71.68 143.36c20.48 20.48 51.2 20.48 71.68 0 20.48-20.48 20.48-51.2 0-71.68-20.48-20.48-51.2-20.48-71.68 0-17.92 20.48-17.92 51.2 0 71.68z" fill="#FFFFFF" p-id="8347"></path></svg>