<?xml version="1.0" standalone="no"?><!DOCTYPE svg PUBLIC "-//W3C//DTD SVG 1.1//EN" "http://www.w3.org/Graphics/SVG/1.1/DTD/svg11.dtd"><svg t="1553244922722" class="icon" style="" viewBox="0 0 1024 1024" version="1.1" xmlns="http://www.w3.org/2000/svg" p-id="4617" xmlns:xlink="http://www.w3.org/1999/xlink" width="200" height="200"><defs><style type="text/css"></style></defs><path d="M541.867 168.96l-3.84-3.84c-6.4-6.4-16.64-6.4-23.04 0l-330.24 328.96c-2.56 2.56-5.12 7.68-5.12 11.52s1.28 8.96 5.12 11.52l3.84 3.84c2.56 3.84 7.68 5.12 11.52 5.12s8.96-1.28 11.52-5.12L541.867 192c2.56-2.56 5.12-7.68 5.12-11.52s-2.56-7.68-5.12-11.52z" fill="#cdcdcd" p-id="4618"></path><path d="M866.987 494.08l-328.96-328.96c-6.4-6.4-16.64-6.4-23.04 0l-3.84 3.84c-2.56 2.56-5.12 7.68-5.12 11.52s1.28 8.96 5.12 11.52l328.96 328.96c2.56 2.56 7.68 5.12 11.52 5.12s8.96-1.28 11.52-5.12l3.84-3.84c6.4-6.4 6.4-16.64 0-23.04z m-573.44-99.84c-10.24 0-19.2 8.96-19.2 19.2v421.12c0 8.96 7.68 16.64 16.64 16.64h5.12c8.96 0 16.64-7.68 16.64-16.64V413.44c0-11.52-8.96-19.2-19.2-19.2z m185.6 186.88v252.16c0 7.68-5.12 12.8-12.8 12.8h-5.12c-7.68 0-12.8-5.12-12.8-12.8V581.12c0-7.68 5.12-12.8 12.8-12.8h5.12c7.68 0 12.8 6.4 12.8 12.8z" fill="#cdcdcd" p-id="4619"></path><path d="M466.347 849.92h-5.12c-8.96 0-16.64-7.68-16.64-16.64V581.12c0-8.96 7.68-16.64 16.64-16.64h5.12c8.96 0 16.64 7.68 16.64 16.64v252.16c0 10.24-7.68 16.64-16.64 16.64z m-5.12-277.76c-5.12 0-8.96 3.84-8.96 8.96v252.16c0 5.12 3.84 8.96 8.96 8.96h5.12c5.12 0 8.96-3.84 8.96-8.96V581.12c0-5.12-3.84-8.96-8.96-8.96h-5.12z m142.08 8.96v252.16c0 7.68-5.12 12.8-12.8 12.8h-5.12c-7.68 0-12.8-5.12-12.8-12.8V581.12c0-7.68 5.12-12.8 12.8-12.8h5.12c7.68 0 12.8 6.4 12.8 12.8z" fill="#cdcdcd" p-id="4620"></path><path d="M590.507 849.92h-5.12c-8.96 0-16.64-7.68-16.64-16.64V581.12c0-8.96 7.68-16.64 16.64-16.64h5.12c8.96 0 16.64 7.68 16.64 16.64v252.16c0 10.24-7.68 16.64-16.64 16.64z m-5.12-277.76c-5.12 0-8.96 3.84-8.96 8.96v252.16c0 5.12 3.84 8.96 8.96 8.96h5.12c5.12 0 8.96-3.84 8.96-8.96V581.12c0-5.12-3.84-8.96-8.96-8.96h-5.12z" fill="#cdcdcd" p-id="4621"></path><path d="M590.507 600.32h-129.28c-7.68 0-12.8-5.12-12.8-12.8v-5.12c0-7.68 5.12-12.8 12.8-12.8h129.28c7.68 0 12.8 5.12 12.8 12.8v5.12c0 6.4-6.4 12.8-12.8 12.8z" fill="#cdcdcd" p-id="4622"></path><path d="M590.507 604.16h-129.28c-8.96 0-16.64-7.68-16.64-16.64v-5.12c0-8.96 7.68-16.64 16.64-16.64h129.28c8.96 0 16.64 7.68 16.64 16.64v5.12c0 8.96-7.68 16.64-16.64 16.64z m-129.28-32c-5.12 0-8.96 3.84-8.96 8.96v5.12c0 5.12 3.84 8.96 8.96 8.96h129.28c5.12 0 8.96-3.84 8.96-8.96v-5.12c0-5.12-3.84-8.96-8.96-8.96h-129.28z m296.96-177.92c-10.24 0-19.2 8.96-19.2 19.2v417.28c0 10.24 8.96 19.2 19.2 19.2s19.2-8.96 19.2-19.2V413.44c0-11.52-8.96-19.2-19.2-19.2zM479.147 815.36h-185.6c-8.96 0-15.36 6.4-15.36 15.36s6.4 15.36 15.36 15.36h170.24c8.96 0 15.36-6.4 15.36-15.36v-15.36z" fill="#cdcdcd" p-id="4623"></path><path d="M463.787 849.92h-170.24c-10.24 0-19.2-8.96-19.2-19.2s8.96-19.2 19.2-19.2h189.44v19.2c0 10.24-8.96 19.2-19.2 19.2z m-170.24-30.72c-6.4 0-11.52 5.12-11.52 11.52s5.12 11.52 11.52 11.52h170.24c6.4 0 11.52-5.12 11.52-11.52V819.2h-181.76zM758.187 815.36h-185.6v15.36c0 8.96 6.4 15.36 15.36 15.36h170.24c8.96 0 15.36-6.4 15.36-15.36s-6.4-15.36-15.36-15.36z" fill="#cdcdcd" p-id="4624"></path><path d="M758.187 849.92h-170.24c-10.24 0-19.2-8.96-19.2-19.2v-19.2h189.44c10.24 0 19.2 8.96 19.2 19.2s-8.96 19.2-19.2 19.2z m-181.76-30.72v11.52c0 6.4 5.12 11.52 11.52 11.52h170.24c6.4 0 11.52-5.12 11.52-11.52s-5.12-11.52-11.52-11.52h-181.76z" fill="#cdcdcd" p-id="4625"></path></svg>