<?xml version="1.0" standalone="no"?><!DOCTYPE svg PUBLIC "-//W3C//DTD SVG 1.1//EN" "http://www.w3.org/Graphics/SVG/1.1/DTD/svg11.dtd"><svg t="1553244110903" class="icon" style="" viewBox="0 0 1024 1024" version="1.1" xmlns="http://www.w3.org/2000/svg" p-id="14593" xmlns:xlink="http://www.w3.org/1999/xlink" width="200" height="200"><defs><style type="text/css"></style></defs><path d="M967.6 424.3v-46.8c0-43.9-35.7-79.6-79.6-79.6H92.1c-43.9 0-79.6 35.7-79.6 79.6v269c0 43.9 35.7 79.6 79.6 79.6H888c43.9 0 79.6-35.7 79.6-79.6v-46.8c24.4-1.4 43.9-21.7 43.9-46.5v-82.3c0-24.9-19.5-45.2-43.9-46.6z m-54.9 222.2c0 13.6-11.1 24.7-24.7 24.7H92.1c-13.6 0-24.7-11.1-24.7-24.7v-269c0-13.6 11.1-24.7 24.7-24.7H888c13.6 0 24.7 11.1 24.7 24.7v269z" fill="#cdcdcd" p-id="14594"></path><path d="M822.1 519.4L409.9 403.6l70.7 116.3L158 475.5l460 144.9-85.6-140.9z" fill="#cdcdcd" p-id="14595"></path></svg>