<?xml version="1.0" standalone="no"?><!DOCTYPE svg PUBLIC "-//W3C//DTD SVG 1.1//EN" "http://www.w3.org/Graphics/SVG/1.1/DTD/svg11.dtd"><svg t="1553158570827" class="icon" style="" viewBox="0 0 1024 1024" version="1.1" xmlns="http://www.w3.org/2000/svg" p-id="2235" xmlns:xlink="http://www.w3.org/1999/xlink" width="200" height="200"><defs><style type="text/css"></style></defs><path d="M274 464.4c-26.2 26.2-26.2 69 0 95.2l380.8 380.8c26.2 26.2 69 26.2 95.2 0 26.2-26.2 26.2-69 0-95.2L369.2 464.4c-26.2-26.2-69-26.2-95.2 0z" fill="#bfbfbf" p-id="2236"></path><path d="M750 83.6c-26.2-26.2-69-26.2-95.2 0L274 464.4c-26.2 26.2-26.2 69 0 95.2 26.2 26.2 69 26.2 95.2 0L750 178.8c26.2-26.2 26.2-69 0-95.2z" fill="#bfbfbf" p-id="2237"></path></svg>