<?xml version="1.0" standalone="no"?><!DOCTYPE svg PUBLIC "-//W3C//DTD SVG 1.1//EN" "http://www.w3.org/Graphics/SVG/1.1/DTD/svg11.dtd"><svg t="1553310195428" class="icon" style="" viewBox="0 0 1024 1024" version="1.1" xmlns="http://www.w3.org/2000/svg" p-id="12522" xmlns:xlink="http://www.w3.org/1999/xlink" width="200" height="200"><defs><style type="text/css"></style></defs><path d="M512 358.4C428.8 358.4 358.4 428.8 358.4 512c0 83.2 70.4 153.6 153.6 153.6 83.2 0 153.6-70.4 153.6-153.6 0-83.2-70.4-153.6-153.6-153.6z m0 236.8c-44.8 0-83.2-38.4-83.2-83.2 0-44.8 38.4-83.2 83.2-83.2 44.8 0 83.2 38.4 83.2 83.2 0 44.8-38.4 83.2-83.2 83.2z m0 0" fill="#1296db" p-id="12523"></path><path d="M902.4 563.2V512 460.8L1024 384l-147.2-249.6-128 64h-6.4c-25.6-19.2-51.2-32-76.8-44.8h-6.4L652.8 12.8H364.8l-6.4 134.4h-6.4c-25.6 12.8-51.2 32-76.8 44.8h-6.4l-128-64L0 384l121.6 76.8v102.4L0 640l147.2 249.6 128-64h6.4c25.6 19.2 51.2 32 76.8 44.8h6.4l6.4 140.8h288l6.4-140.8h6.4c25.6-12.8 51.2-25.6 76.8-44.8h6.4l128 64L1024 640l-121.6-76.8z m-51.2 230.4l-108.8-51.2-38.4 25.6c-19.2 12.8-38.4 25.6-64 38.4l-44.8 19.2-6.4 115.2H435.2l-6.4-121.6-44.8-12.8c-19.2-6.4-44.8-19.2-64-38.4l-38.4-32-108.8 51.2-76.8-128 102.4-64-6.4-44.8V512v-38.4l6.4-51.2-96-64 76.8-128 108.8 51.2L320 256c19.2-12.8 38.4-25.6 64-38.4l44.8-19.2 6.4-121.6h147.2L588.8 192l51.2 25.6c19.2 6.4 44.8 19.2 64 38.4l38.4 32 108.8-51.2 76.8 128-96 64v121.6l-6.4 51.2 96 64-70.4 128z m0 0" fill="#1296db" p-id="12524"></path></svg>