<?xml version="1.0" standalone="no"?><!DOCTYPE svg PUBLIC "-//W3C//DTD SVG 1.1//EN" "http://www.w3.org/Graphics/SVG/1.1/DTD/svg11.dtd"><svg t="1553514565107" class="icon" style="" viewBox="0 0 1024 1024" version="1.1" xmlns="http://www.w3.org/2000/svg" p-id="2122" xmlns:xlink="http://www.w3.org/1999/xlink" width="200" height="200"><defs><style type="text/css"></style></defs><path d="M768 912H256A144 144 0 0 1 112 768V256A144 144 0 0 1 256 112h512A144 144 0 0 1 912 256v512A144 144 0 0 1 768 912z m-512-768A112.64 112.64 0 0 0 144 256v512A112.64 112.64 0 0 0 256 880h512A112.64 112.64 0 0 0 880 768V256A112.64 112.64 0 0 0 768 144z" fill="" p-id="2123"></path><path d="M332.8 240m-16 0a16 16 0 1 0 32 0 16 16 0 1 0-32 0Z" fill="" p-id="2124"></path><path d="M688 240m-16 0a16 16 0 1 0 32 0 16 16 0 1 0-32 0Z" fill="" p-id="2125"></path><path d="M512 384a192 192 0 0 1-187.52-143.36 8.32 8.32 0 1 1 15.36-4.48 177.92 177.92 0 0 0 344.32 0 7.68 7.68 0 0 1 9.6-5.76 7.68 7.68 0 0 1 5.76 9.6A192 192 0 0 1 512 384z" fill="" p-id="2126"></path></svg>